<svg width="65" height="36" viewBox="0 0 65 36" fill="none" xmlns="http://www.w3.org/2000/svg">
<path d="M14.2452 12.7935C14.546 13.1915 14.8469 13.5894 14.7466 14.1864C14.7466 14.5843 14.1449 15.1813 14.546 15.3803L16.0503 13.5894C15.6492 13.4899 12.5404 9.80881 12.5404 9.41085L10.4344 10.5052C10.5347 10.9032 11.2367 10.5052 11.6378 10.5052C12.1392 10.5052 12.5404 10.9032 12.9415 11.2017C11.8384 12.0971 9.13072 14.4848 8.82987 14.4848C8.72958 14.4848 8.12788 14.0869 8.12788 14.4848C8.12788 14.6838 8.72958 15.1813 8.82987 15.2808L10.2338 16.9721C10.635 16.7731 10.1336 16.4746 10.3341 16.1762C10.4344 15.9772 13.5432 13.4899 14.2452 12.7935ZM10.8355 8.31646C11.1364 8.21697 11.2367 8.61493 11.4372 8.31646L9.8327 6.42615C9.63214 6.12768 9.33128 5.82921 9.33128 6.42615C9.43157 6.82411 5.31993 10.1073 5.11936 10.2068C4.81851 10.3063 4.61794 9.9083 4.41738 10.3063C4.91879 10.9032 5.31993 11.4007 5.82135 11.9976C6.02192 12.1966 6.1222 12.3956 6.32277 12.5945C6.52334 12.7935 6.42305 12.1966 6.42305 12.1966C6.32277 11.8981 6.72391 11.5996 7.02476 11.4007C8.0276 10.4057 10.5347 8.31646 10.8355 8.31646ZM5.11936 7.71952C4.01624 8.01799 2.71255 7.62003 2.4117 6.42615C2.01056 5.23226 2.81283 4.03838 3.71539 3.34195C4.61794 2.64552 6.02192 2.74501 6.52334 3.8394C6.72391 4.33685 6.62362 4.93379 6.42305 5.43125C6.32277 5.72972 6.02192 6.02819 6.42305 6.22717C7.02475 5.53074 7.52617 4.8343 8.12788 4.13787C7.42589 3.73991 7.12504 3.04348 6.62362 2.44654C6.02192 1.75011 5.31993 1.05368 4.31709 0.954191C2.4117 0.655721 0.706876 2.64552 0.506309 4.33685C0.406025 5.23226 0.706875 6.12768 1.30858 6.9236C1.81 7.52054 2.51198 8.01799 2.91312 8.71442C3.11369 8.81391 4.71823 8.01799 5.01908 7.9185C5.21965 7.9185 5.11936 7.81901 5.11936 7.71952C5.11936 7.71952 4.61794 7.9185 5.11936 7.71952ZM30.6917 31.1992C29.9898 30.7017 28.0844 28.2145 27.6832 27.717L27.4827 27.4186L27.2821 27.518C27.1818 27.6175 27.3824 27.916 27.2821 28.115C26.7807 28.9109 23.5716 31.2987 23.371 31.4976C22.9699 31.6966 22.5687 31.3982 22.3682 31.6966C22.8696 32.2936 24.1733 33.9849 24.3739 33.9849C24.6747 33.9849 24.4741 33.4874 24.4741 33.388C24.5744 33.189 26.179 31.7961 26.7807 31.2987C26.9812 31.0997 27.1818 31.5971 27.3824 31.7961C27.5829 32.0946 27.6832 32.4926 27.5829 32.791C27.4827 32.99 27.0815 33.388 27.3824 33.5869C27.7835 33.0895 28.8866 31.7961 29.0872 31.5971C29.2878 31.3982 28.6861 31.5971 28.7863 31.4976C28.5858 31.5971 28.2849 31.6966 28.0844 31.4976C27.9841 31.4976 27.3824 30.8012 27.4827 30.7017C27.7835 30.5027 28.0844 30.1048 28.4855 30.0053C29.0872 29.9058 29.4883 31.0002 29.5886 31.3982C29.6889 31.7961 29.6889 32.1941 29.4883 32.4925C29.3881 32.791 29.1875 32.99 29.4883 33.0895L30.8923 31.1992C30.8923 31.2987 30.792 31.2987 30.6917 31.1992C30.792 31.2987 30.5915 31.1992 30.6917 31.1992ZM21.4656 22.3446C20.7636 22.3446 20.0617 22.643 19.4599 23.1405C18.056 24.3344 17.8554 26.4237 18.9585 27.916C20.2622 29.6073 22.3682 29.8063 24.073 28.6124C25.477 27.4186 25.6775 25.3293 24.5744 23.8369C23.7722 22.842 22.5687 22.3446 21.4656 22.3446ZM22.669 23.7374C23.5716 23.6379 24.1733 24.5333 23.7722 25.5282C23.371 26.5231 22.3682 27.518 21.3653 27.916C20.1619 28.4135 19.3597 27.4186 19.8611 26.2247C20.2622 25.2298 21.2651 24.2349 22.2679 23.8369C22.3682 23.8369 22.4685 23.7374 22.669 23.7374ZM19.8611 19.1609C20.1619 19.1609 20.4628 19.5588 20.6634 19.1609L19.2594 17.4695C18.8582 17.6685 19.2594 17.8675 19.1591 18.0665C18.9585 18.365 17.4543 18.5639 17.0531 18.6634C17.1534 18.2655 17.6548 16.9721 17.8554 16.8726C18.2565 16.5741 18.4571 17.1711 18.6577 16.7731L16.8526 14.6838C16.652 14.4848 16.4514 13.9874 16.2509 14.2859C16.2509 14.2859 16.2509 15.2808 16.1506 15.3803C16.0503 15.5792 15.5489 17.768 14.9472 18.2655C14.6463 18.5639 13.4429 19.5588 13.1421 19.6583C12.8412 19.7578 12.6407 19.2604 12.3398 19.6583L13.9443 21.5486C14.0446 21.6481 14.3455 22.1456 14.4458 22.1456C14.7466 22.2451 14.4458 21.5486 14.546 21.4491C14.6463 21.1507 16.1506 19.6583 16.8526 19.5588C17.7551 19.3599 18.8582 19.0614 19.8611 19.1609C19.6605 19.1609 20.0617 19.1609 19.8611 19.1609ZM44.1298 25.8267C44.2301 26.2247 44.3303 26.7221 44.2301 27.1201C44.1298 27.717 43.6284 29.0104 42.8261 28.6124C42.0238 28.2145 41.4221 27.518 40.7201 26.9211C41.2215 26.3242 41.723 25.8267 42.6255 26.1252C42.8261 26.2247 43.0266 26.1252 42.8261 25.9262C42.5252 25.7272 40.8204 24.6328 40.7201 24.7323C40.5196 24.9313 41.021 25.3293 40.8204 25.7272C40.7201 26.0257 40.4193 26.2247 40.2187 26.5231C39.7173 26.1252 39.0153 25.7272 39.5167 25.0308C39.9179 24.6328 40.319 24.2349 40.9207 24.1354C41.3218 24.0359 42.1241 24.4339 42.2244 24.0359C41.5224 23.7374 40.8204 23.3395 40.1184 23.041C40.2187 23.5384 37.9122 25.9262 37.4108 26.5231C37.3105 26.6226 37.0096 26.9211 37.0096 27.0206C37.0096 27.3191 37.4108 27.1201 37.4108 27.1201C37.7116 27.0206 41.8232 30.4033 41.9235 30.7017C42.0238 30.9007 41.8232 31.0997 41.9235 31.1992C41.9235 31.1992 42.0238 31.2987 42.1241 31.2987C42.4249 31.0002 45.0323 27.4186 45.634 27.3191C45.1326 26.5231 44.6312 25.7272 44.1298 24.9313C43.7286 25.1303 44.0295 25.6277 44.1298 25.8267ZM40.1184 30.2043C38.8147 29.3089 36.5082 31.0002 36.1071 31.1992C35.4051 31.4976 34.9037 30.8012 35.3048 30.2043C35.6056 29.7068 36.2073 29.4084 36.8091 29.4084C37.0096 29.4084 37.7116 29.5078 37.7116 29.4084C37.8119 29.3089 37.8119 29.3089 37.7116 29.2094C37.1099 28.8114 36.6085 28.4135 36.0068 28.115C35.9065 28.8114 35.1042 29.2094 34.7031 29.7068C34.2017 30.3038 33.7003 31.0002 33.7003 31.6966C33.7003 32.3931 34.1014 33.0895 34.8034 33.388C35.5054 33.7859 36.3076 33.4875 37.0096 33.0895C37.4108 32.791 37.8119 32.4925 38.213 32.2936C38.8147 31.9951 39.7173 32.2936 39.5167 33.0895C39.3162 33.7859 38.6142 34.3829 37.9122 34.5818C37.511 34.6813 37.1099 34.6813 36.7088 34.4824C36.4079 34.3829 36.1071 33.9849 35.9065 34.3829L38.213 35.9747C38.3133 35.4773 38.5139 35.2783 38.915 34.9798C39.4164 34.5818 39.8176 34.0844 40.2187 33.5869C41.021 32.6915 41.3218 31.0997 40.1184 30.2043ZM57.7684 2.24756C57.7684 2.34705 57.7684 2.34705 57.7684 2.24756L56.8658 3.24246L56.0636 4.23736C55.863 4.43634 55.7627 4.53583 56.0636 4.73481C56.565 4.43634 59.5735 9.51034 59.3729 10.2068C58.8715 10.4057 54.8601 6.9236 54.7599 6.72462C54.7599 6.62513 54.9604 6.02819 54.6596 6.12768C54.5593 6.12768 54.1582 6.72462 54.0579 6.82411L53.4562 7.52054C53.6567 7.81901 53.757 7.52054 54.0579 7.52054C54.2584 7.62003 55.2613 8.41595 55.5621 8.61493C55.0607 8.61493 53.8573 8.71442 53.6567 8.71442C53.055 8.81391 53.3559 8.31646 52.9547 8.11748L51.4505 9.9083L50.5479 10.9032C50.5479 10.9032 50.5479 10.9032 50.5479 11.0027C50.7485 11.2017 50.6482 11.1022 50.9491 11.0027C51.2499 10.9032 55.2613 14.1864 55.3616 14.3854C55.5621 14.6838 55.2613 14.9823 55.6624 15.1813L56.8658 13.7884C56.9661 13.6889 56.9661 13.6889 56.8658 13.6889C56.565 13.4899 56.565 13.7884 56.1638 13.7884C55.863 13.6889 53.2556 11.5996 52.353 10.8037L57.6681 10.6047C57.8687 10.6047 58.3701 11.2017 58.3701 11.4007C58.2698 11.5996 58.0692 11.7986 58.3701 11.8981C58.6709 11.5001 58.9718 11.2017 59.2726 10.8037L59.3729 10.6047C59.4732 10.6047 59.4732 10.5052 59.4732 10.4057L59.5735 10.3063C59.8743 10.0078 60.7769 9.01289 60.6766 8.9134C60.3758 8.61493 60.2755 9.21187 59.8743 8.9134C59.6738 8.71442 59.0721 7.71952 58.9718 7.52054C58.7712 7.22207 59.3729 6.9236 59.5735 6.82411C60.0749 6.52564 61.6794 6.02819 61.88 7.02309C61.88 7.22207 61.6794 7.42105 61.7797 7.52054C61.7797 7.52054 61.88 7.71952 61.9803 7.62003L64.0863 5.03329C63.986 4.9338 63.986 4.93379 63.8857 4.8343C63.3843 5.33175 58.3701 3.34195 58.0692 3.04348C57.9689 2.8445 57.9689 2.24756 57.7684 2.24756ZM57.5678 4.8343C58.3701 5.13277 59.0721 5.43124 59.8743 5.82921C59.6738 5.9287 59.4732 6.02819 59.2726 6.12768C59.0721 6.22717 58.8715 6.42615 58.6709 6.62513L57.5678 4.8343ZM50.9491 12.495C49.8459 12.3956 48.7428 12.893 47.9406 13.7884C46.7371 15.2808 46.8374 17.4695 48.3417 18.6634C49.8459 19.8573 52.0522 19.5588 53.2556 18.166C54.459 16.6736 54.3587 14.4848 52.8545 13.291C52.353 12.893 51.6511 12.5945 50.9491 12.495ZM49.5451 14.0869C50.1468 14.0869 50.8488 14.4848 51.2499 14.7833C52.0522 15.2808 53.4562 16.4746 52.7542 17.4695C52.7542 17.3701 52.8545 17.3701 52.6539 17.569C51.8516 18.365 50.4477 17.6685 49.7457 17.0716C49.0437 16.5741 47.74 15.3803 48.5423 14.3854C48.8431 14.1864 49.144 14.0869 49.5451 14.0869ZM46.4363 18.365C45.2329 18.2655 44.0295 18.8624 43.1269 19.9568C42.5252 20.7527 41.8232 21.4491 41.2215 22.2451C41.4221 22.5435 41.723 22.1456 42.0238 22.3446C42.3247 22.5435 46.1355 25.6277 46.1355 25.8267C46.2357 26.1252 45.9349 26.2247 46.2357 26.4237C46.336 26.5231 49.144 23.041 49.4448 22.444C49.8459 21.3497 49.5451 20.0563 48.6425 19.2604C48.7428 19.3599 48.8431 19.3599 48.6425 19.2604C47.8403 18.6634 47.1383 18.365 46.4363 18.365ZM45.3332 19.9568C45.4335 19.9568 45.5337 19.9568 45.634 19.9568C47.038 20.3548 49.0437 22.0461 47.74 23.5384C47.5394 23.7374 47.74 23.5384 47.3389 23.9364C47.1383 24.1354 43.1269 20.9517 43.3275 20.7527C43.7286 20.2553 44.6312 19.8573 45.3332 19.9568Z" fill="white"/>
</svg>
